<?xml version="1.0" encoding="UTF-8" standalone="no"?><!DOCTYPE svg PUBLIC "-//W3C//DTD SVG 1.1//EN" "http://www.w3.org/Graphics/SVG/1.1/DTD/svg11.dtd"><svg width="100%" height="100%" viewBox="0 0 400 400" version="1.1" xmlns="http://www.w3.org/2000/svg" xmlns:xlink="http://www.w3.org/1999/xlink" xml:space="preserve" xmlns:serif="http://www.serif.com/" style="fill-rule:evenodd;clip-rule:evenodd;stroke-linecap:round;stroke-linejoin:round;"><path d="M139.689,59.402l-31.801,-15.45c-11.085,-1.455 -15.63,15.991 1.996,36.346l29.805,-20.896Z" style="fill:#e6aa75;fill-rule:nonzero;stroke:#4a2b12;stroke-width:8px;"/><path d="M127.697,60.011l-17.519,-9.444c-6.033,-2.145 -9.823,7.387 1.407,21.491l16.112,-12.047Z" style="fill:#b87a4f;fill-rule:nonzero;"/><path d="M130,70c30,-40 110,-40 140,0c40,20 70,60 60,120c-5,30 -10,40 -5,60c5,30 30,70 15,110c-15,30 -80,30 -140,30c-60,0 -125,0 -140,-30c-15,-40 10,-80 15,-110c5,-20 0,-30 -5,-60c-10,-60 20,-100 60,-120Z" style="fill:#e6aa75;fill-rule:nonzero;stroke:#4a2b12;stroke-width:8px;"/><path d="M200,105c50,0 65,35 65,70c0,40 -25,55 -65,55c-40,0 -65,-15 -65,-55c0,-35 15,-70 65,-70Z" style="fill:#b87a4f;fill-rule:nonzero;"/><path d="M121.502,319.092c34.249,2.712 59.936,25.316 68.498,66.908l-85.623,0c-13.515,-33.095 -2.186,-46.112 17.125,-66.908Z" style="fill:#b87a4f;fill-rule:nonzero;"/><path d="M263.499,59.402l31.801,-15.45c11.085,-1.455 15.63,15.991 -1.996,36.346l-29.805,-20.896Z" style="fill:#e6aa75;fill-rule:nonzero;stroke:#4a2b12;stroke-width:8px;"/><path d="M281.687,319.092c-34.249,2.712 -59.936,25.316 -68.498,66.908l85.623,0c13.515,-33.095 2.186,-46.112 -17.125,-66.908Z" style="fill:#b87a4f;fill-rule:nonzero;"/><path d="M275.492,60.011l17.519,-9.444c6.033,-2.145 9.823,7.387 -1.407,21.491l-16.112,-12.047Z" style="fill:#b87a4f;fill-rule:nonzero;"/><ellipse cx="298.812" cy="155" rx="18" ry="12" style="fill:#e08795;"/><path d="M105,340c15,-30 55,-35 85,46" style="fill:none;fill-rule:nonzero;stroke:#4a2b12;stroke-width:8px;"/><path d="M295,340c-15,-30 -55,-35 -85,46" style="fill:none;fill-rule:nonzero;"/><clipPath id="_clip1"><path d="M295,340c-15,-30 -55,-35 -85,46" clip-rule="nonzero"/></clipPath><g clip-path="url(#_clip1)"><path d="M130,70c30,-40 110,-40 140,0c40,20 70,60 60,120c-5,30 -10,40 -5,60c5,30 30,70 15,110c-15,30 -80,30 -140,30c-60,0 -125,0 -140,-30c-15,-40 10,-80 15,-110c5,-20 0,-30 -5,-60c-10,-60 20,-100 60,-120Z" style="fill:none;fill-rule:nonzero;stroke:#4a2b12;stroke-width:8px;"/></g><path d="M295,340c-15,-30 -55,-35 -85,46" style="fill:none;fill-rule:nonzero;stroke:#4a2b12;stroke-width:8px;"/><path d="M145,248c20,0 30,2 30,12c0,8 -10,8 -30,8l0,-20Z" style="fill:#b87a4f;fill-rule:nonzero;"/><path d="M80,245c50,0 95,0 95,15c0,15 -45,15 -95,5" style="fill:none;fill-rule:nonzero;stroke:#4a2b12;stroke-width:8px;"/><path d="M255,248c-20,0 -30,2 -30,12c0,8 10,8 30,8l0,-20Z" style="fill:#b87a4f;fill-rule:nonzero;"/><path d="M320,245c-50,0 -95,0 -95,15c0,15 45,15 95,5" style="fill:none;fill-rule:nonzero;stroke:#4a2b12;stroke-width:8px;"/><path d="M78,225c22,10 42,15 67,10" style="fill:none;fill-rule:nonzero;stroke:#4a2b12;stroke-width:8px;"/><path d="M322,225c-22,10 -42,15 -67,10" style="fill:none;fill-rule:nonzero;stroke:#4a2b12;stroke-width:8px;"/><path d="M95,130c10,-13.333 20,-13.333 30,0" style="fill:none;fill-rule:nonzero;stroke:#4a2b12;stroke-width:10px;stroke-linejoin:miter;"/><path d="M275,130c10,-13.333 20,-13.333 30,0" style="fill:none;fill-rule:nonzero;stroke:#4a2b12;stroke-width:10px;stroke-linejoin:miter;"/><ellipse cx="104.377" cy="155" rx="18" ry="12" style="fill:#e08795;"/><path d="M173.188,138.239c2.132,-0.571 4.676,1.994 5.675,5.726c1,3.732 0.08,7.225 -2.052,7.797c-2.132,0.571 -4.676,-1.994 -5.675,-5.726c-1,-3.732 -0.08,-7.225 2.052,-7.797Z" style="fill:#4a2b12;"/><path d="M226.812,138.239c2.132,0.571 3.052,4.065 2.052,7.797c-1,3.732 -3.543,6.298 -5.675,5.726c-2.132,-0.571 -3.052,-4.065 -2.052,-7.797c1,-3.732 3.543,-6.298 5.675,-5.726Z" style="fill:#4a2b12;"/><path d="M180,185c6.667,8.667 13.333,9.667 20,3c6.667,6.667 13.333,5.667 20,-3" style="fill:none;fill-rule:nonzero;stroke:#4a2b12;stroke-width:8px;"/><path d="M130,70c30,-40 110,-40 140,0c40,20 70,60 60,120c-5,30 -10,40 -5,60c5,30 30,70 15,110c-15,30 -80,30 -140,30c-60,0 -125,0 -140,-30c-15,-40 10,-80 15,-110c5,-20 0,-30 -5,-60c-10,-60 20,-100 60,-120Z" style="fill:none;fill-rule:nonzero;stroke:#4a2b12;stroke-width:8px;"/></svg>